<svg xmlns="http://www.w3.org/2000/svg"
     xmlns:lucid="lucid"
     xmlns:xlink="http://www.w3.org/1999/xlink"
     viewBox="0 0 200 200"
     width="200" height="200"
     >
  <defs>
     <ref id="paramX" param="fill"   default="red"/>
     <ref id="paramY" param="stroke" default="blue"/>
  </defs>
  <g lucid:page-tab-id="0_0" fill="#fff">
     <path d="M-220-40h1760v1360H-220z"/>
     <path d="M101.97 25.67a2.1 2.1 0 0 0-3.94 0L83.16 68.44a8.62 8.62 0 0 1-7.97 5.8l-45.3.92a2.1 2.1 0 0 0-1.2 3.74l36.08 27.36a8.62 8.62 0 0 1 3.05 9.37L54.7 158.98a2.1 2.1 0 0 0 3.2 2.3l37.18-25.85a8.62 8.62 0 0 1 9.84 0l37.18 25.86a2.1 2.1 0 0 0 3.2-2.32l-13.13-43.35a8.62 8.62 0 0 1 3.05-9.37L171.3 78.9a2.1 2.1 0 0 0-1.2-3.74l-45.3-.93a8.62 8.62 0 0 1-7.96-5.8z"
       stroke="url(#paramY)" stroke-width="6"/>
  </g>
  <script type="text/ecmascript" xlink:href="https://dev.w3.org/SVG/modules/ref/master/ref2.js"></script>
</svg>